# xmcd
#
# Track frame offsets:
#	150
#	16073
#	32566
#	60597
#	85484
#	110481
#	135994
#	163617
#	186803
#	217492
#
# Disc length: 3209 seconds
#
# Revision: 1
# Processed by: cddbd v1.5.1PL2 Copyright (c) Steve Scherf et al.
# Submitted via: audiograbber 1.83.01
#
DISCID=840c870a
DTITLE=Peat Jr. and Fernando - Szerelem száll...
DYEAR=2006
DGENRE=Techno
TTITLE0=Main radio mix
TTITLE1=Party radio mix
TTITLE2=P&F X-tend party mix
TTITLE3=Náksi vs. Bruner club mix
TTITLE4=Dj Páz italo mix
TTITLE5=Catana vs. Bérdy club mix
TTITLE6=Hiányzol '06 (P&F progressive mix)
TTITLE7=Újra dobban a szív '06 (P&F klubb traxx mix)
TTITLE8=Hungarian Drummers (P&F full original mix)
TTITLE9=Itt a nyár (Peat Jr. party mix)
EXTD=
EXTT0=
EXTT1=
EXTT2=
EXTT3=
EXTT4=
EXTT5=
EXTT6=
EXTT7=
EXTT8=
EXTT9=
PLAYORDER=
